# xmcd CD database file
#
# Track frame offsets:
#	150
#	8406
#	29422
#
# Disc length: 884 seconds
#
# Revision: 0
# Processed by: cddbd v1.5.1PL0 Copyright (c) Steve Scherf et al.
# Submitted via: CDex 1.51
#
DISCID=14037203
DTITLE=ゆほびか - イメージングディスク
DYEAR=2005
DGENRE=Meditative
TTITLE0=T1
TTITLE1=T2
TTITLE2=T3
EXTD=YEAR: 2005
EXTT0=
EXTT1=
EXTT2=
PLAYORDER=
